<?xml version="1.0" standalone="no"?>
<!DOCTYPE svg PUBLIC "-//W3C//DTD SVG 20010904//EN"
 "http://www.w3.org/TR/2001/REC-SVG-20010904/DTD/svg10.dtd">
<svg version="1.0" xmlns="http://www.w3.org/2000/svg"
 width="700.000000pt" height="700.000000pt" viewBox="0 0 700.000000 700.000000"
 preserveAspectRatio="xMidYMid meet">
<metadata>
Created by potrace 1.14, written by Peter Selinger 2001-2017
</metadata>
<g transform="translate(0.000000,700.000000) scale(0.100000,-0.100000)"
fill="#000000" stroke="none">
<path d="M2975 6403 c-256 -33 -509 -115 -800 -258 -471 -231 -830 -538 -982
-840 -82 -161 -109 -291 -100 -483 8 -192 35 -308 191 -817 143 -467 159 -605
132 -1157 -20 -398 -15 -517 26 -693 90 -383 363 -750 753 -1008 336 -223 768
-343 1112 -308 205 20 355 67 575 177 142 71 206 110 518 314 140 91 350 224
465 295 336 208 490 333 568 462 56 93 70 145 71 258 0 163 -46 300 -232 690
-244 512 -279 646 -307 1175 -29 550 -164 1001 -404 1359 -304 451 -760 771
-1185 830 -72 10 -334 13 -401 4z"/>
</g>
</svg>
